<svg width="70" height="70" viewBox="0 0 70 70" fill="none" xmlns="http://www.w3.org/2000/svg">
<path d="M32.7828 31.4743C39.7201 31.4743 45.3439 25.8505 45.3439 18.9132C45.3439 11.9759 39.7201 6.35205 32.7828 6.35205C25.8455 6.35205 20.2217 11.9759 20.2217 18.9132C20.2217 25.8505 25.8455 31.4743 32.7828 31.4743Z" fill="white"/>
<path d="M40.8328 54.4382H54.4439V57.1605H40.8328V54.4382Z" fill="white"/>
<path d="M29.1662 58.327V64.1603C29.1662 64.676 29.371 65.1706 29.7357 65.5352C30.1003 65.8999 30.5949 66.1047 31.1106 66.1047H64.1662C64.6819 66.1047 65.1764 65.8999 65.5411 65.5352C65.9057 65.1706 66.1106 64.676 66.1106 64.1603V44.7158C66.1106 44.2001 65.9057 43.7056 65.5411 43.3409C65.1764 42.9763 64.6819 42.7714 64.1662 42.7714H50.555V39.9131C50.555 39.3974 50.3502 38.9028 49.9855 38.5381C49.6209 38.1735 49.1263 37.9686 48.6106 37.9686C48.0949 37.9686 47.6003 38.1735 47.2357 38.5381C46.871 38.9028 46.6662 39.3974 46.6662 39.9131V42.7714H42.7773V35.8103C39.4731 35.2706 36.1308 34.9975 32.7828 34.9936C25.3994 34.9622 18.0987 36.5485 11.3939 39.6408C10.2904 40.1616 9.35947 40.988 8.71152 42.0219C8.06357 43.0559 7.72583 44.254 7.73837 45.4742V58.327H29.1662ZM62.2217 62.2158H33.055V46.6603H46.6662V47.477C46.6662 47.9927 46.871 48.4872 47.2357 48.8519C47.6003 49.2165 48.0949 49.4214 48.6106 49.4214C49.1263 49.4214 49.6209 49.2165 49.9855 48.8519C50.3502 48.4872 50.555 47.9927 50.555 47.477V46.6603H62.2217V62.2158Z" fill="white"/>
</svg>
