<svg width="70" height="70" viewBox="0 0 70 70" fill="none" xmlns="http://www.w3.org/2000/svg">
<path d="M34.9999 32.0769C38.8677 32.0769 42.577 33.6134 45.3119 36.3483C48.0468 39.0832 49.5833 42.7925 49.5833 46.6602V64.1602H20.4166V46.6602C20.4166 42.7925 21.953 39.0832 24.6879 36.3483C27.4229 33.6134 31.1322 32.0769 34.9999 32.0769ZM15.4233 40.8444C14.9591 42.41 14.6849 44.0258 14.6066 45.6569L14.5833 46.6602V64.1602H5.83325V51.0352C5.83268 48.5198 6.76083 46.0928 8.43969 44.2196C10.1185 42.3464 12.4299 41.1591 14.9303 40.8852L15.4262 40.8444H15.4233ZM54.5766 40.8444C57.1722 41.0026 59.6096 42.1451 61.3917 44.0388C63.1738 45.9326 64.1662 48.4349 64.1666 51.0352V64.1602H55.4166V46.6602C55.4166 44.639 55.1249 42.6877 54.5766 40.8444ZM16.0416 23.3269C17.9755 23.3269 19.8301 24.0951 21.1976 25.4626C22.565 26.83 23.3333 28.6847 23.3333 30.6186C23.3333 32.5524 22.565 34.4071 21.1976 35.7746C19.8301 37.142 17.9755 37.9102 16.0416 37.9102C14.1077 37.9102 12.2531 37.142 10.8856 35.7746C9.51815 34.4071 8.74992 32.5524 8.74992 30.6186C8.74992 28.6847 9.51815 26.83 10.8856 25.4626C12.2531 24.0951 14.1077 23.3269 16.0416 23.3269ZM53.9583 23.3269C55.8921 23.3269 57.7468 24.0951 59.1142 25.4626C60.4817 26.83 61.2499 28.6847 61.2499 30.6186C61.2499 32.5524 60.4817 34.4071 59.1142 35.7746C57.7468 37.142 55.8921 37.9102 53.9583 37.9102C52.0244 37.9102 50.1697 37.142 48.8023 35.7746C47.4348 34.4071 46.6666 32.5524 46.6666 30.6186C46.6666 28.6847 47.4348 26.83 48.8023 25.4626C50.1697 24.0951 52.0244 23.3269 53.9583 23.3269ZM34.9999 5.8269C38.0941 5.8269 41.0616 7.05607 43.2495 9.24399C45.4374 11.4319 46.6666 14.3994 46.6666 17.4936C46.6666 20.5878 45.4374 23.5552 43.2495 25.7432C41.0616 27.9311 38.0941 29.1602 34.9999 29.1602C31.9057 29.1602 28.9383 27.9311 26.7503 25.7432C24.5624 23.5552 23.3333 20.5878 23.3333 17.4936C23.3333 14.3994 24.5624 11.4319 26.7503 9.24399C28.9383 7.05607 31.9057 5.8269 34.9999 5.8269Z" fill="white"/>
</svg>
