<svg width="70" height="70" viewBox="0 0 70 70" fill="none" xmlns="http://www.w3.org/2000/svg">
<path d="M8.74487 13.4919L35.008 5.8269L61.2449 13.4919V29.2098C61.2449 45.7298 50.672 58.938 34.9992 64.1602C19.3222 58.9394 8.74487 45.7269 8.74487 29.2025V13.4919Z" stroke="white" stroke-width="4" stroke-linejoin="round"/>
<path d="M49.3664 28.1369C49.3534 27.967 49.3066 27.8017 49.2289 27.6513C49.1512 27.5008 49.0443 27.3685 48.9148 27.2626C48.7853 27.1567 48.6361 27.0794 48.4763 27.0356C48.3166 26.9918 48.1498 26.9824 47.9864 27.008C45.3734 27.4379 39.2474 29.9309 34.9949 29.9309C30.7424 29.9309 24.6164 27.4379 22.0034 27.008C21.84 26.9821 21.6733 26.9913 21.5135 27.0349C21.3538 27.0786 21.2045 27.1557 21.075 27.2615C20.9455 27.3673 20.8385 27.4995 20.7608 27.6499C20.6831 27.8003 20.6363 27.9655 20.6234 28.1354C20.4104 30.5046 19.9949 36.8128 19.9949 37.7686C19.9949 39.0522 25.2029 41.9937 28.9949 41.9937C32.6729 41.9937 33.4199 37.7686 34.9949 37.7686C36.5699 37.7686 37.3169 41.9937 40.9949 41.9937C44.7869 41.9937 49.9949 39.0522 49.9949 37.7686C49.9949 36.8128 49.5794 30.5046 49.3664 28.1369ZM31.4849 35.6839C30.9554 36.1757 29.4824 37.3387 27.6884 36.9752C25.8944 36.6118 24.8099 34.9292 24.4394 34.2565C24.3955 34.1789 24.3782 34.0885 24.3901 33.9996C24.4021 33.9107 24.4427 33.8285 24.5054 33.7662C25.0349 33.2744 26.5079 32.1115 28.3034 32.4749C30.0974 32.8383 31.1819 34.5209 31.5524 35.1937C31.5958 35.2714 31.6127 35.3619 31.6005 35.4508C31.5883 35.5396 31.5476 35.6217 31.4849 35.6839ZM45.5504 34.2565C45.1814 34.9307 44.0969 36.6118 42.3014 36.9752C40.5074 37.3387 39.0329 36.1757 38.5049 35.6839C38.4422 35.6217 38.4015 35.5396 38.3892 35.4508C38.377 35.3619 38.394 35.2714 38.4374 35.1937C38.8064 34.5194 39.8909 32.8383 41.6864 32.4749C43.4804 32.1115 44.9549 33.2744 45.4829 33.7662C45.546 33.8282 45.5871 33.9103 45.5993 33.9992C45.6116 34.0882 45.5943 34.1789 45.5504 34.2565Z" fill="white"/>
</svg>
