<svg width="70" height="70" viewBox="0 0 70 70" fill="none" xmlns="http://www.w3.org/2000/svg">
<g clip-path="url(#clip0_219_229)">
<path d="M50.5502 26.2437C50.5502 14.1618 39.2335 4.36865 25.2724 4.36865C11.3113 4.36865 -0.00537109 14.1618 -0.00537109 26.2437C-0.00537109 30.929 1.71182 35.2603 4.60904 38.819C2.98543 42.9534 0.300879 46.2265 0.26199 46.2729C0.131132 46.428 0.0435656 46.6228 0.0101299 46.8333C-0.0233058 47.0437 -0.00114227 47.2606 0.0738768 47.4571C0.148896 47.6535 0.273476 47.8209 0.432196 47.9385C0.590915 48.0561 0.776805 48.1187 0.966851 48.1187C5.41234 48.1187 9.10071 46.4438 11.75 44.7034C15.6632 46.8554 20.2922 48.1187 25.2724 48.1187C39.2335 48.1187 50.5502 38.3255 50.5502 26.2437ZM23.328 39.3687V37.1415C21.9559 37.0622 20.6215 36.5235 19.5156 35.5897C19.0417 35.1892 19.0174 34.3907 19.4464 33.93L20.8743 32.3974C21.2109 32.0364 21.7116 32.02 22.1054 32.2976C22.5757 32.6284 23.1092 32.8062 23.6634 32.8062H27.0795C27.8695 32.8062 28.5136 31.9968 28.5136 31.0028C28.5136 30.1894 28.0748 29.4729 27.4478 29.2624L21.979 27.4167C19.7198 26.6538 18.1412 24.2147 18.1412 21.4845C18.1412 18.1321 20.4563 15.4087 23.3267 15.3226V13.1187C23.3267 12.5144 23.7618 12.0249 24.299 12.0249H26.2434C26.7806 12.0249 27.2156 12.5144 27.2156 13.1187V15.3458C28.5877 15.4251 29.9221 15.9624 31.028 16.8976C31.5019 17.2981 31.5262 18.0966 31.0972 18.5573L29.6693 20.0899C29.3326 20.4509 28.832 20.4673 28.4382 20.1897C27.9679 19.8575 27.4344 19.6812 26.8802 19.6812H23.4641C22.6741 19.6812 22.03 20.4905 22.03 21.4845C22.03 22.2979 22.4688 23.0144 23.0958 23.2249L28.5646 25.0706C30.8238 25.8335 32.4024 28.2726 32.4024 31.0028C32.4024 34.3565 30.0873 37.0786 27.2169 37.1647V39.3687C27.2169 39.9729 26.7818 40.4624 26.2446 40.4624H24.3002C23.763 40.4624 23.328 39.9729 23.328 39.3687ZM65.3778 56.3204C68.2774 52.7616 69.9946 48.429 69.9946 43.7437C69.9946 34.5917 63.4941 26.7632 54.2774 23.4997C54.382 24.4021 54.4391 25.3167 54.4391 26.2437C54.4391 40.7181 41.3554 52.4937 25.2724 52.4937C23.9623 52.4937 22.6814 52.3884 21.4163 52.2366C25.2481 60.0993 34.2375 65.6187 44.7169 65.6187C49.6971 65.6187 54.326 64.3554 58.2392 62.2034C60.8885 63.9438 64.5769 65.6187 69.0224 65.6187C69.4113 65.6187 69.7625 65.3575 69.9144 64.9569C70.0688 64.555 69.9946 64.0901 69.7261 63.7716C69.6884 63.7265 67.0014 60.4575 65.3778 56.3204Z" fill="white"/>
</g>
<defs>
<clipPath id="clip0_219_229">
<rect width="70" height="70" fill="white" transform="translate(-0.00537109 -0.00634766)"/>
</clipPath>
</defs>
</svg>
