<svg width="70" height="70" viewBox="0 0 70 70" fill="none" xmlns="http://www.w3.org/2000/svg">
<path d="M34.9999 5.8269C18.9174 5.8269 5.83325 18.9111 5.83325 34.9936V47.0773C5.83325 50.064 8.4495 52.4936 11.6666 52.4936H14.5833C15.3568 52.4936 16.0987 52.1863 16.6456 51.6393C17.1926 51.0923 17.4999 50.3505 17.4999 49.5769V34.5765C17.4999 33.8029 17.1926 33.0611 16.6456 32.5141C16.0987 31.9671 15.3568 31.6598 14.5833 31.6598H11.9349C13.5566 20.3723 23.2691 11.6602 34.9999 11.6602C46.7308 11.6602 56.4433 20.3723 58.0649 31.6598H55.4166C54.643 31.6598 53.9012 31.9671 53.3542 32.5141C52.8072 33.0611 52.4999 33.8029 52.4999 34.5765V52.4936C52.4999 55.7107 49.8837 58.3269 46.6666 58.3269H40.8333V55.4102H29.1666V64.1602H46.6666C53.1008 64.1602 58.3333 58.9277 58.3333 52.4936C61.5503 52.4936 64.1666 50.064 64.1666 47.0773V34.9936C64.1666 18.9111 51.0824 5.8269 34.9999 5.8269Z" fill="white"/>
</svg>
