<svg width="212" height="134" viewBox="0 0 212 134" fill="none" xmlns="http://www.w3.org/2000/svg">
<path d="M97.8218 12.5C95.0843 12.5 92.6812 13.9063 90.9843 15.7219C89.2875 17.5406 88.0656 19.8125 86.9812 22.2656C85.3218 26.0469 84.1375 30.25 83.075 34.1812C79.6812 35.1687 76.8 36.4 74.4812 37.8906C71.7718 39.6375 69.5 42.0531 69.5 45.3125C69.5 48.1437 71.2343 50.4156 73.4062 52.05C75.2625 53.4438 77.5437 54.6031 80.2437 55.5656C80.4 56.2844 80.6343 57.0187 80.925 57.7156C78.2906 59.2031 74.1125 62.0844 70.0875 67.5781L68.2312 70.2156L70.8687 72.0688L81.1187 79.1L76.925 87.5H137.081L132.881 79.1L143.137 72.0688L145.772 70.2156L143.919 67.5781C139.887 62.0844 135.716 59.2031 133.075 57.7156C133.372 57.0187 133.603 56.2875 133.762 55.5656C136.459 54.6031 138.741 53.4406 140.597 52.05C142.769 50.4156 144.503 48.1437 144.503 45.3125C144.503 42.0531 142.231 39.6375 139.522 37.8906C137.203 36.4 134.322 35.1688 130.928 34.1781C129.756 30.1031 128.462 25.8313 126.828 22.0719C125.766 19.6406 124.594 17.4062 122.922 15.625C121.25 13.8438 118.869 12.5 116.181 12.5C114.362 12.5 112.984 13 111.494 13.3781C110.006 13.7563 108.503 14.0625 107.003 14.0625C104.003 14.0625 101.484 12.5 97.8218 12.5ZM97.8218 18.75C98.4687 18.75 102.312 20.3125 107 20.3125C109.344 20.3125 111.431 19.8375 113.056 19.4344C114.678 19.0281 115.912 18.75 116.181 18.75C116.9 18.75 117.437 18.9812 118.328 19.9219C119.219 20.8594 120.269 22.5594 121.159 24.6094C122.856 28.4906 124.15 33.7906 125.556 38.6719C125.556 38.6594 125.725 38.525 125.262 38.7688C124.481 39.1969 122.844 39.7469 120.866 40.0375C116.9 40.6375 111.491 40.625 107 40.625C102.531 40.625 97.1125 40.5625 93.1312 39.9406C91.1437 39.6375 89.5312 39.0969 88.7375 38.6719C88.4937 38.5375 88.4093 38.5875 88.3468 38.575V38.4781C88.3593 38.4531 88.3343 38.4031 88.3468 38.3781L88.4437 38.2812C88.6775 37.861 88.8122 37.3928 88.8375 36.9125V36.8187C89.9593 32.6656 91.2156 28.2719 92.7437 24.8031C93.6562 22.7187 94.6468 21.0219 95.575 20.0219C96.5031 19.0188 97.1375 18.75 97.8218 18.75ZM82.5843 40.9187C83.2937 42.3844 84.5406 43.5562 85.8093 44.2375C87.7156 45.25 89.8968 45.7281 92.2531 46.0938C96.9656 46.825 102.484 46.875 107 46.875C111.494 46.875 117.022 46.9 121.747 46.1906C124.116 45.8375 126.275 45.375 128.191 44.3344C129.472 43.6406 130.719 42.4062 131.416 40.9187C133.344 41.6031 134.966 42.3344 136.103 43.0656C137.922 44.2375 138.25 45.1063 138.25 45.3125C138.25 45.4969 138.094 46.0938 136.784 47.0719C135.478 48.0469 133.234 49.1813 130.341 50.0969C124.553 51.9406 116.228 53.125 107 53.125C97.7718 53.125 89.4468 51.9406 83.6593 50.0969C80.7656 49.1813 78.5218 48.0469 77.2156 47.0719C75.9062 46.0938 75.75 45.4969 75.75 45.3125C75.75 45.1063 75.9937 44.325 77.8 43.1625C78.9375 42.4313 80.6093 41.6375 82.5875 40.9187H82.5843ZM90.6906 58.0094C91.7156 58.1781 92.7312 58.4594 93.8156 58.5938C94.2218 61.3406 96.3562 63.7562 99.7718 63.9656C102.409 64.1219 105.375 62.8781 105.634 59.375H108.369C108.625 62.8781 111.587 64.125 114.228 63.9656C117.644 63.7562 119.781 61.3406 120.184 58.5938C121.269 58.4594 122.284 58.1781 123.309 58.0063L123.016 59.9594C122.05 65.1 119.756 69.8594 116.862 73.1469C113.969 76.425 110.578 78.1719 107 78.125C103.325 78.075 100.006 76.3063 97.1375 73.0469C94.2687 69.7875 92.0125 65.125 90.9843 59.9594L90.6906 58.0094ZM128.875 62.5C130.034 63.1844 133.087 65.1875 136.591 69.0438L127.116 75.5844L124.872 77.0531L126.044 79.4906L126.922 81.25H117.059C118.721 80.1128 120.23 78.7675 121.55 77.2469C124.994 73.3406 127.3 68.225 128.581 62.6938C128.691 62.6344 128.778 62.5625 128.875 62.5ZM85.0281 62.5969C85.15 62.6719 85.2968 62.7219 85.4187 62.7938C86.7625 68.25 89.0562 73.3031 92.45 77.1469C93.8531 78.7469 95.4875 80.1156 97.2343 81.25H87.0781L87.9562 79.4906L89.1281 77.0531L86.8812 75.5844L77.4125 69.0438C80.7187 65.3937 83.7343 63.3781 85.0281 62.5969Z" fill="white"/>
<path d="M13.9249 124.4H6.12494L4.63694 128H0.652938L8.14094 111.2H11.9809L19.4929 128H15.4129L13.9249 124.4ZM12.7009 121.448L10.0369 115.016L7.37294 121.448H12.7009ZM37.1288 111.2V128H33.2408V121.112H25.6088V128H21.7208V111.2H25.6088V117.824H33.2408V111.2H37.1288ZM49.354 128.288C47.61 128.288 46.034 127.912 44.626 127.16C43.234 126.408 42.138 125.376 41.338 124.064C40.554 122.736 40.162 121.248 40.162 119.6C40.162 117.952 40.554 116.472 41.338 115.16C42.138 113.832 43.234 112.792 44.626 112.04C46.034 111.288 47.61 110.912 49.354 110.912C51.098 110.912 52.666 111.288 54.058 112.04C55.45 112.792 56.546 113.832 57.346 115.16C58.146 116.472 58.546 117.952 58.546 119.6C58.546 121.248 58.146 122.736 57.346 124.064C56.546 125.376 55.45 126.408 54.058 127.16C52.666 127.912 51.098 128.288 49.354 128.288ZM49.354 124.976C50.346 124.976 51.242 124.752 52.042 124.304C52.842 123.84 53.466 123.2 53.914 122.384C54.378 121.568 54.61 120.64 54.61 119.6C54.61 118.56 54.378 117.632 53.914 116.816C53.466 116 52.842 115.368 52.042 114.92C51.242 114.456 50.346 114.224 49.354 114.224C48.362 114.224 47.466 114.456 46.666 114.92C45.866 115.368 45.234 116 44.77 116.816C44.322 117.632 44.098 118.56 44.098 119.6C44.098 120.64 44.322 121.568 44.77 122.384C45.234 123.2 45.866 123.84 46.666 124.304C47.466 124.752 48.362 124.976 49.354 124.976ZM76.9491 111.2V128H73.0611V121.112H65.4291V128H61.5411V111.2H65.4291V117.824H73.0611V111.2H76.9491ZM81.1583 111.2H85.0223V122.144L93.0383 111.2H96.6863V128H92.8463V117.08L84.8303 128H81.1583V111.2ZM116.157 128L116.133 117.944L111.189 126.224H109.461L104.517 118.136V128H100.869V111.2H104.085L110.373 121.64L116.565 111.2H119.781L119.805 128H116.157ZM139.387 111.2V128H135.499V121.112H127.867V128H123.979V111.2H127.867V117.824H135.499V111.2H139.387ZM151.612 128.288C149.868 128.288 148.292 127.912 146.884 127.16C145.492 126.408 144.396 125.376 143.596 124.064C142.812 122.736 142.42 121.248 142.42 119.6C142.42 117.952 142.812 116.472 143.596 115.16C144.396 113.832 145.492 112.792 146.884 112.04C148.292 111.288 149.868 110.912 151.612 110.912C153.356 110.912 154.924 111.288 156.316 112.04C157.708 112.792 158.804 113.832 159.604 115.16C160.404 116.472 160.804 117.952 160.804 119.6C160.804 121.248 160.404 122.736 159.604 124.064C158.804 125.376 157.708 126.408 156.316 127.16C154.924 127.912 153.356 128.288 151.612 128.288ZM151.612 124.976C152.604 124.976 153.5 124.752 154.3 124.304C155.1 123.84 155.724 123.2 156.172 122.384C156.636 121.568 156.868 120.64 156.868 119.6C156.868 118.56 156.636 117.632 156.172 116.816C155.724 116 155.1 115.368 154.3 114.92C153.5 114.456 152.604 114.224 151.612 114.224C150.62 114.224 149.724 114.456 148.924 114.92C148.124 115.368 147.492 116 147.028 116.816C146.58 117.632 146.356 118.56 146.356 119.6C146.356 120.64 146.58 121.568 147.028 122.384C147.492 123.2 148.124 123.84 148.924 124.304C149.724 124.752 150.62 124.976 151.612 124.976ZM171.743 128.288C170.031 128.288 168.479 127.92 167.087 127.184C165.711 126.432 164.623 125.4 163.823 124.088C163.039 122.76 162.647 121.264 162.647 119.6C162.647 117.936 163.039 116.448 163.823 115.136C164.623 113.808 165.711 112.776 167.087 112.04C168.479 111.288 170.039 110.912 171.767 110.912C173.223 110.912 174.535 111.168 175.703 111.68C176.887 112.192 177.879 112.928 178.679 113.888L176.183 116.192C175.047 114.88 173.639 114.224 171.959 114.224C170.919 114.224 169.991 114.456 169.175 114.92C168.359 115.368 167.719 116 167.255 116.816C166.807 117.632 166.583 118.56 166.583 119.6C166.583 120.64 166.807 121.568 167.255 122.384C167.719 123.2 168.359 123.84 169.175 124.304C169.991 124.752 170.919 124.976 171.959 124.976C173.639 124.976 175.047 124.312 176.183 122.984L178.679 125.288C177.879 126.264 176.887 127.008 175.703 127.52C174.519 128.032 173.199 128.288 171.743 128.288ZM193.889 114.368H188.513V128H184.673V114.368H179.321V111.2H193.889V114.368ZM204.466 116.72C206.514 116.72 208.082 117.176 209.17 118.088C210.274 119 210.826 120.352 210.826 122.144C210.826 124.048 210.218 125.504 209.002 126.512C207.802 127.504 206.106 128 203.914 128H196.33V111.2H200.194V116.72H204.466ZM203.698 125.12C204.706 125.12 205.49 124.872 206.05 124.376C206.626 123.88 206.914 123.16 206.914 122.216C206.914 120.472 205.842 119.6 203.698 119.6H200.194V125.12H203.698Z" fill="white"/>
</svg>
