<svg width="216" height="134" viewBox="0 0 216 134" fill="none" xmlns="http://www.w3.org/2000/svg">
<path d="M145.5 45.8333C145.5 68.9583 129.5 90.5833 108 95.8333C86.5 90.5833 70.5 68.9583 70.5 45.8333V20.8333L108 4.16666L145.5 20.8333V45.8333ZM108 87.5C123.625 83.3333 137.167 64.75 137.167 46.75V26.25L108 13.25L78.8333 26.25V46.75C78.8333 64.75 92.375 83.3333 108 87.5ZM99.6667 70.8333L83 54.1667L88.875 48.2917L99.6667 59.0417L127.125 31.5833L133 37.5" fill="white"/>
<path d="M2.43956 111.2H15.9996V114.296H6.30356V117.752H10.9596C12.9916 117.752 14.5356 118.176 15.5916 119.024C16.6636 119.872 17.1996 121.096 17.1996 122.696C17.1996 124.376 16.6076 125.68 15.4236 126.608C14.2396 127.536 12.5676 128 10.4076 128H2.43956V111.2ZM10.1916 125.12C11.1836 125.12 11.9436 124.928 12.4716 124.544C12.9996 124.144 13.2636 123.568 13.2636 122.816C13.2636 121.344 12.2396 120.608 10.1916 120.608H6.30356V125.12H10.1916ZM33.1663 124.88V128H20.1583V111.2H32.8543V114.32H24.0223V117.968H31.8223V120.992H24.0223V124.88H33.1663ZM45.8588 119.24C46.8348 119.576 47.5948 120.104 48.1388 120.824C48.6988 121.528 48.9788 122.352 48.9788 123.296C48.9788 124.32 48.6428 125.208 47.9708 125.96C47.2988 126.712 46.3868 127.288 45.2348 127.688C44.0988 128.088 42.8508 128.288 41.4908 128.288C40.3388 128.288 39.1868 128.144 38.0348 127.856C36.8988 127.568 35.8188 127.128 34.7948 126.536L35.9948 123.752C36.7308 124.2 37.5388 124.544 38.4188 124.784C39.3148 125.008 40.1868 125.12 41.0348 125.12C42.1868 125.12 43.1388 124.912 43.8908 124.496C44.6588 124.08 45.0428 123.496 45.0428 122.744C45.0428 122.12 44.7788 121.648 44.2508 121.328C43.7388 121.008 43.0348 120.848 42.1388 120.848H38.0348V117.92H41.8508C42.6348 117.92 43.2428 117.76 43.6748 117.44C44.1228 117.12 44.3468 116.68 44.3468 116.12C44.3468 115.464 44.0268 114.952 43.3868 114.584C42.7628 114.216 41.9548 114.032 40.9628 114.032C40.2268 114.032 39.4668 114.136 38.6828 114.344C37.8988 114.536 37.1548 114.832 36.4508 115.232L35.2748 112.208C37.0508 111.296 38.9708 110.84 41.0348 110.84C42.3468 110.84 43.5548 111.032 44.6588 111.416C45.7628 111.8 46.6428 112.36 47.2988 113.096C47.9548 113.832 48.2828 114.688 48.2828 115.664C48.2828 116.464 48.0668 117.176 47.6348 117.8C47.2028 118.424 46.6108 118.904 45.8588 119.24ZM60.0728 128.288C58.3288 128.288 56.7528 127.912 55.3448 127.16C53.9528 126.408 52.8568 125.376 52.0568 124.064C51.2728 122.736 50.8808 121.248 50.8808 119.6C50.8808 117.952 51.2728 116.472 52.0568 115.16C52.8568 113.832 53.9528 112.792 55.3448 112.04C56.7528 111.288 58.3288 110.912 60.0728 110.912C61.8168 110.912 63.3848 111.288 64.7768 112.04C66.1688 112.792 67.2648 113.832 68.0648 115.16C68.8648 116.472 69.2648 117.952 69.2648 119.6C69.2648 121.248 68.8648 122.736 68.0648 124.064C67.2648 125.376 66.1688 126.408 64.7768 127.16C63.3848 127.912 61.8168 128.288 60.0728 128.288ZM60.0728 124.976C61.0648 124.976 61.9608 124.752 62.7608 124.304C63.5608 123.84 64.1848 123.2 64.6328 122.384C65.0968 121.568 65.3288 120.64 65.3288 119.6C65.3288 118.56 65.0968 117.632 64.6328 116.816C64.1848 116 63.5608 115.368 62.7608 114.92C61.9608 114.456 61.0648 114.224 60.0728 114.224C59.0808 114.224 58.1848 114.456 57.3848 114.92C56.5848 115.368 55.9528 116 55.4888 116.816C55.0408 117.632 54.8168 118.56 54.8168 119.6C54.8168 120.64 55.0408 121.568 55.4888 122.384C55.9528 123.2 56.5848 123.84 57.3848 124.304C58.1848 124.752 59.0808 124.976 60.0728 124.976ZM87.5719 111.2V128H83.7079V114.368H76.1239V128H72.2599V111.2H87.5719ZM103.112 124.4H95.3124L93.8244 128H89.8404L97.3284 111.2H101.168L108.68 128H104.6L103.112 124.4ZM101.888 121.448L99.2244 115.016L96.5604 121.448H101.888ZM118.618 128.288C116.906 128.288 115.354 127.92 113.962 127.184C112.586 126.432 111.498 125.4 110.698 124.088C109.914 122.76 109.522 121.264 109.522 119.6C109.522 117.936 109.914 116.448 110.698 115.136C111.498 113.808 112.586 112.776 113.962 112.04C115.354 111.288 116.914 110.912 118.642 110.912C120.098 110.912 121.41 111.168 122.578 111.68C123.762 112.192 124.754 112.928 125.554 113.888L123.058 116.192C121.922 114.88 120.514 114.224 118.834 114.224C117.794 114.224 116.866 114.456 116.05 114.92C115.234 115.368 114.594 116 114.13 116.816C113.682 117.632 113.458 118.56 113.458 119.6C113.458 120.64 113.682 121.568 114.13 122.384C114.594 123.2 115.234 123.84 116.05 124.304C116.866 124.752 117.794 124.976 118.834 124.976C120.514 124.976 121.922 124.312 123.058 122.984L125.554 125.288C124.754 126.264 123.762 127.008 122.578 127.52C121.394 128.032 120.074 128.288 118.618 128.288ZM143.496 111.2V128H139.608V121.112H131.976V128H128.088V111.2H131.976V117.824H139.608V111.2H143.496ZM155.721 128.288C153.977 128.288 152.401 127.912 150.993 127.16C149.601 126.408 148.505 125.376 147.705 124.064C146.921 122.736 146.529 121.248 146.529 119.6C146.529 117.952 146.921 116.472 147.705 115.16C148.505 113.832 149.601 112.792 150.993 112.04C152.401 111.288 153.977 110.912 155.721 110.912C157.465 110.912 159.033 111.288 160.425 112.04C161.817 112.792 162.913 113.832 163.713 115.16C164.513 116.472 164.913 117.952 164.913 119.6C164.913 121.248 164.513 122.736 163.713 124.064C162.913 125.376 161.817 126.408 160.425 127.16C159.033 127.912 157.465 128.288 155.721 128.288ZM155.721 124.976C156.713 124.976 157.609 124.752 158.409 124.304C159.209 123.84 159.833 123.2 160.281 122.384C160.745 121.568 160.977 120.64 160.977 119.6C160.977 118.56 160.745 117.632 160.281 116.816C159.833 116 159.209 115.368 158.409 114.92C157.609 114.456 156.713 114.224 155.721 114.224C154.729 114.224 153.833 114.456 153.033 114.92C152.233 115.368 151.601 116 151.137 116.816C150.689 117.632 150.465 118.56 150.465 119.6C150.465 120.64 150.689 121.568 151.137 122.384C151.601 123.2 152.233 123.84 153.033 124.304C153.833 124.752 154.729 124.976 155.721 124.976ZM175.852 128.288C174.14 128.288 172.588 127.92 171.196 127.184C169.82 126.432 168.732 125.4 167.932 124.088C167.148 122.76 166.756 121.264 166.756 119.6C166.756 117.936 167.148 116.448 167.932 115.136C168.732 113.808 169.82 112.776 171.196 112.04C172.588 111.288 174.148 110.912 175.876 110.912C177.332 110.912 178.644 111.168 179.812 111.68C180.996 112.192 181.988 112.928 182.788 113.888L180.292 116.192C179.156 114.88 177.748 114.224 176.068 114.224C175.028 114.224 174.1 114.456 173.284 114.92C172.468 115.368 171.828 116 171.364 116.816C170.916 117.632 170.692 118.56 170.692 119.6C170.692 120.64 170.916 121.568 171.364 122.384C171.828 123.2 172.468 123.84 173.284 124.304C174.1 124.752 175.028 124.976 176.068 124.976C177.748 124.976 179.156 124.312 180.292 122.984L182.788 125.288C181.988 126.264 180.996 127.008 179.812 127.52C178.628 128.032 177.308 128.288 175.852 128.288ZM197.998 114.368H192.622V128H188.782V114.368H183.43V111.2H197.998V114.368ZM208.576 116.72C210.624 116.72 212.192 117.176 213.28 118.088C214.384 119 214.936 120.352 214.936 122.144C214.936 124.048 214.328 125.504 213.112 126.512C211.912 127.504 210.216 128 208.024 128H200.44V111.2H204.304V116.72H208.576ZM207.808 125.12C208.816 125.12 209.6 124.872 210.16 124.376C210.736 123.88 211.024 123.16 211.024 122.216C211.024 120.472 209.952 119.6 207.808 119.6H204.304V125.12H207.808Z" fill="white"/>
</svg>
