<svg width="161" height="134" viewBox="0 0 161 134" fill="none" xmlns="http://www.w3.org/2000/svg">
<path d="M114.273 0H73.0176L46.7383 45H73.0176L50.5176 90L110.512 33.75H80.5059L114.273 0Z" fill="white"/>
<path d="M17.8369 128L17.8129 117.944L12.8689 126.224H11.1409L6.19694 118.136V128H2.54894V111.2H5.76494L12.0529 121.64L18.2449 111.2H21.4609L21.4849 128H17.8369ZM33.6743 128.288C31.9303 128.288 30.3543 127.912 28.9463 127.16C27.5543 126.408 26.4583 125.376 25.6583 124.064C24.8743 122.736 24.4823 121.248 24.4823 119.6C24.4823 117.952 24.8743 116.472 25.6583 115.16C26.4583 113.832 27.5543 112.792 28.9463 112.04C30.3543 111.288 31.9303 110.912 33.6743 110.912C35.4183 110.912 36.9863 111.288 38.3783 112.04C39.7703 112.792 40.8663 113.832 41.6663 115.16C42.4663 116.472 42.8663 117.952 42.8663 119.6C42.8663 121.248 42.4663 122.736 41.6663 124.064C40.8663 125.376 39.7703 126.408 38.3783 127.16C36.9863 127.912 35.4183 128.288 33.6743 128.288ZM33.6743 124.976C34.6663 124.976 35.5623 124.752 36.3623 124.304C37.1623 123.84 37.7863 123.2 38.2343 122.384C38.6983 121.568 38.9303 120.64 38.9303 119.6C38.9303 118.56 38.6983 117.632 38.2343 116.816C37.7863 116 37.1623 115.368 36.3623 114.92C35.5623 114.456 34.6663 114.224 33.6743 114.224C32.6823 114.224 31.7863 114.456 30.9863 114.92C30.1863 115.368 29.5543 116 29.0903 116.816C28.6423 117.632 28.4183 118.56 28.4183 119.6C28.4183 120.64 28.6423 121.568 29.0903 122.384C29.5543 123.2 30.1863 123.84 30.9863 124.304C31.7863 124.752 32.6823 124.976 33.6743 124.976ZM68.0374 111.2V128H45.8614V111.2H49.7254V124.832H55.0294V111.2H58.8934V124.832H64.1734V111.2H68.0374ZM70.3174 124.832V131.48H66.7174V128H64.1014V124.832H70.3174ZM88.3866 111.2V128H84.4986V121.112H76.8666V128H72.9786V111.2H76.8666V117.824H84.4986V111.2H88.3866ZM100.612 128.288C98.8678 128.288 97.2918 127.912 95.8838 127.16C94.4918 126.408 93.3958 125.376 92.5958 124.064C91.8118 122.736 91.4198 121.248 91.4198 119.6C91.4198 117.952 91.8118 116.472 92.5958 115.16C93.3958 113.832 94.4918 112.792 95.8838 112.04C97.2918 111.288 98.8678 110.912 100.612 110.912C102.356 110.912 103.924 111.288 105.316 112.04C106.708 112.792 107.804 113.832 108.604 115.16C109.404 116.472 109.804 117.952 109.804 119.6C109.804 121.248 109.404 122.736 108.604 124.064C107.804 125.376 106.708 126.408 105.316 127.16C103.924 127.912 102.356 128.288 100.612 128.288ZM100.612 124.976C101.604 124.976 102.5 124.752 103.3 124.304C104.1 123.84 104.724 123.2 105.172 122.384C105.636 121.568 105.868 120.64 105.868 119.6C105.868 118.56 105.636 117.632 105.172 116.816C104.724 116 104.1 115.368 103.3 114.92C102.5 114.456 101.604 114.224 100.612 114.224C99.6198 114.224 98.7238 114.456 97.9238 114.92C97.1238 115.368 96.4918 116 96.0278 116.816C95.5798 117.632 95.3558 118.56 95.3558 119.6C95.3558 120.64 95.5798 121.568 96.0278 122.384C96.4918 123.2 97.1238 123.84 97.9238 124.304C98.7238 124.752 99.6198 124.976 100.612 124.976ZM120.743 128.288C119.031 128.288 117.479 127.92 116.087 127.184C114.711 126.432 113.623 125.4 112.823 124.088C112.039 122.76 111.647 121.264 111.647 119.6C111.647 117.936 112.039 116.448 112.823 115.136C113.623 113.808 114.711 112.776 116.087 112.04C117.479 111.288 119.039 110.912 120.767 110.912C122.223 110.912 123.535 111.168 124.703 111.68C125.887 112.192 126.879 112.928 127.679 113.888L125.183 116.192C124.047 114.88 122.639 114.224 120.959 114.224C119.919 114.224 118.991 114.456 118.175 114.92C117.359 115.368 116.719 116 116.255 116.816C115.807 117.632 115.583 118.56 115.583 119.6C115.583 120.64 115.807 121.568 116.255 122.384C116.719 123.2 117.359 123.84 118.175 124.304C118.991 124.752 119.919 124.976 120.959 124.976C122.639 124.976 124.047 124.312 125.183 122.984L127.679 125.288C126.879 126.264 125.887 127.008 124.703 127.52C123.519 128.032 122.199 128.288 120.743 128.288ZM142.889 114.368H137.513V128H133.673V114.368H128.321V111.2H142.889V114.368ZM153.466 116.72C155.514 116.72 157.082 117.176 158.17 118.088C159.274 119 159.826 120.352 159.826 122.144C159.826 124.048 159.218 125.504 158.002 126.512C156.802 127.504 155.106 128 152.914 128H145.33V111.2H149.194V116.72H153.466ZM152.698 125.12C153.706 125.12 154.49 124.872 155.05 124.376C155.626 123.88 155.914 123.16 155.914 122.216C155.914 120.472 154.842 119.6 152.698 119.6H149.194V125.12H152.698Z" fill="white"/>
</svg>
